<svg width="24" height="24" viewBox="0 0 24 24" fill="none" xmlns="http://www.w3.org/2000/svg">
<path d="M19.8021 10.7522H4.198V19.7163H19.8021V10.7522Z" fill="url(#paint0_linear_6687_1969)"/>
<path d="M22.5469 21.1377H1.45312V21.7969H22.5469V21.1377Z" fill="#CFD8DD"/>
<path d="M21.3164 19.8193H2.68359V20.4785H21.3164V19.8193Z" fill="#CFD8DD"/>
<path d="M21.9316 20.4785H2.06836V21.1377H21.9316V20.4785Z" fill="#E6EBEF"/>
<path d="M20.7012 19.1602H3.29883V19.8193H20.7012V19.1602Z" fill="#E6EBEF"/>
<path d="M21.5583 9.76289H2.44214V10.4228H21.5583V9.76289Z" fill="#99A8AE"/>
<path d="M22.5469 10.4224H1.45312V11.0823H22.5469V10.4224Z" fill="#CFD8DD"/>
<path d="M11.9958 1.70157L1.45312 7.46579L2.33625 8.78555L11.9958 2.35231L21.6637 8.78555L22.5469 7.46579L11.9958 1.70157Z" fill="#99A8AE"/>
<path d="M11.9958 0.703125L1.45312 7.46578V8.45543L11.9958 1.69242L22.5469 8.45543V7.46578L11.9958 0.703125Z" fill="#CFD8DD"/>
<path d="M11.9958 2.35229L1.45312 9.1153V9.77519H22.5469V9.1153L11.9958 2.35229Z" fill="#CFD8DD"/>
<path d="M11.9958 3.33351L3.23975 9.11531H20.7602L11.9958 3.33351Z" fill="#E6EBEF"/>
<path d="M5.84766 11.6708H3.73828V18.5449H5.84766V11.6708Z" fill="#E6EBEF"/>
<path d="M6.11133 18.5449H3.47461V19.1602H6.11133V18.5449Z" fill="#CFD8DD"/>
<path d="M6.11133 11.0742H3.47461V11.6708H6.11133V11.0742Z" fill="#CFD8DD"/>
<path d="M4.19776 11.9461H3.94885V18.2879H4.19776V11.9461Z" fill="#C8D0D6"/>
<path d="M5.63685 11.9461H5.38794V18.2879H5.63685V11.9461Z" fill="#C8D0D6"/>
<path d="M5.15688 11.9461H4.90833V18.2879H5.15688V11.9461Z" fill="#C8D0D6"/>
<path d="M4.67727 11.9461H4.42871V18.2879H4.67727V11.9461Z" fill="#C8D0D6"/>
<path d="M10.6521 11.6708H8.54272V18.5667H10.6521V11.6708Z" fill="#E6EBEF"/>
<path d="M10.9158 18.5671H8.27905V19.1605H10.9158V18.5671Z" fill="#CFD8DD"/>
<path d="M10.9158 11.0742H8.27905V11.6708H10.9158V11.0742Z" fill="#CFD8DD"/>
<path d="M9.00222 11.9461H8.75366V18.2879H9.00222V11.9461Z" fill="#C8D0D6"/>
<path d="M10.4412 11.9461H10.1926V18.2879H10.4412V11.9461Z" fill="#C8D0D6"/>
<path d="M9.9618 11.9461H9.71289V18.2879H9.9618V11.9461Z" fill="#C8D0D6"/>
<path d="M9.48218 11.9461H9.23328V18.2879H9.48218V11.9461Z" fill="#C8D0D6"/>
<path d="M15.4569 11.6708H13.3475V18.5667H15.4569V11.6708Z" fill="#E6EBEF"/>
<path d="M15.7206 18.5671H13.0839V19.1605H15.7206V18.5671Z" fill="#CFD8DD"/>
<path d="M15.7206 11.0742H13.0839V11.6708H15.7206V11.0742Z" fill="#CFD8DD"/>
<path d="M13.8069 11.9461H13.5583V18.2879H13.8069V11.9461Z" fill="#C8D0D6"/>
<path d="M15.246 11.9461H14.9974V18.2879H15.246V11.9461Z" fill="#C8D0D6"/>
<path d="M14.7665 11.9461H14.5176V18.2879H14.7665V11.9461Z" fill="#C8D0D6"/>
<path d="M14.2869 11.9461H14.038V18.2879H14.2869V11.9461Z" fill="#C8D0D6"/>
<path d="M20.2617 11.6708H18.1523V18.5449H20.2617V11.6708Z" fill="#E6EBEF"/>
<path d="M20.5254 18.5449H17.8887V19.1602H20.5254V18.5449Z" fill="#CFD8DD"/>
<path d="M20.5254 11.0742H17.8887V11.6708H20.5254V11.0742Z" fill="#CFD8DD"/>
<path d="M18.6118 11.9461H18.3629V18.2879H18.6118V11.9461Z" fill="#C8D0D6"/>
<path d="M20.0509 11.9461H19.802V18.2879H20.0509V11.9461Z" fill="#C8D0D6"/>
<path d="M19.5709 11.9461H19.3224V18.2879H19.5709V11.9461Z" fill="#C8D0D6"/>
<path d="M19.0913 11.9461H18.8428V18.2879H19.0913V11.9461Z" fill="#C8D0D6"/>
<defs>
<linearGradient id="paint0_linear_6687_1969" x1="12" y1="19.7163" x2="12" y2="10.7524" gradientUnits="userSpaceOnUse">
<stop stop-color="#5B666E"/>
<stop offset="0.2385" stop-color="#565F68"/>
<stop offset="0.5791" stop-color="#484C58"/>
<stop offset="0.9795" stop-color="#312E3D"/>
<stop offset="1" stop-color="#302C3B"/>
</linearGradient>
</defs>
</svg>
