<svg width="24" height="24" viewBox="0 0 24 24" fill="none" xmlns="http://www.w3.org/2000/svg">
<g clip-path="url(#clip0_6738_899)">
<path d="M14.5196 7.48577C14.1248 6.04727 13.6912 4.32677 13.6912 1.92002C13.6912 0.749643 12 0.707268 12 1.92002V7.48577H14.5196Z" fill="#EDB547"/>
<path d="M14.2729 7.55551C13.8491 6.01238 13.4359 4.30576 13.4359 1.92226C13.4359 1.04888 12.2561 1.04663 12.2561 1.92038H11.745C11.745 0.358883 13.9474 0.361133 13.9474 1.92226C13.9474 4.24238 14.3524 5.91076 14.7664 7.42013L14.2729 7.55551Z" fill="#D9A640"/>
<path d="M23.2499 23.25V18.3064C23.2499 18.3064 20.6812 16.6537 19.1171 15.4972C18.2148 14.8305 13.5239 18.525 14.0354 19.7775C14.2619 20.331 16.1234 23.25 16.1234 23.25H23.2499Z" fill="#018BC9"/>
<path d="M18.7208 16.1126C18.7208 16.1126 16.101 13.8773 15.9683 12.9626C15.7875 11.7124 15.7346 10.6519 15.1635 9.1789C14.6096 7.74827 14.1574 6.20177 13.9965 3.74815C13.8836 2.02952 12 2.2234 12 3.55802V17.4904C12 17.4904 12.2816 18.0765 13.7505 18.3934C14.133 18.4755 14.5751 19.5008 14.5751 19.5008C15.9814 19.6238 18.6641 17.2253 18.7208 16.1126Z" fill="url(#paint0_radial_6738_899)"/>
<path d="M14.7487 19.2679C14.5796 18.9101 14.2162 18.2497 13.8112 18.1627C12.5201 17.8845 12.2374 17.3974 12.2336 17.3921L11.7761 17.6205C11.811 17.6914 12.1571 18.3289 13.7032 18.6619C13.8341 18.6919 14.1476 19.1576 14.3479 19.6215C14.3479 19.6215 15.2415 19.2424 14.7487 19.2679Z" fill="#D9A640"/>
<path d="M18.8875 15.93C17.9024 15.09 16.3079 13.5349 16.2216 12.9379C16.0574 11.7967 15.9951 10.629 15.4015 9.09824C14.9024 7.80862 14.4168 6.26737 14.2514 3.74287C14.1216 1.76774 11.7441 1.78012 11.7441 3.56962H12.2553C12.2553 2.47462 13.6548 2.47275 13.7406 3.77662C13.9113 6.36937 14.4108 7.95525 14.9249 9.28274C15.4795 10.7134 15.5605 11.9456 15.715 13.0114C15.8455 13.9136 17.902 15.753 18.448 16.2274C18.7739 16.4239 18.8875 15.93 18.8875 15.93Z" fill="#D9A640"/>
<path d="M18.5742 15.5565C18.4467 17.3145 15.6503 19.4726 14.121 19.2727C13.9965 22.1205 22.2274 17.9201 18.5742 15.5565Z" fill="#018BC9"/>
<path d="M12.2553 1.92038H11.7441V17.7623H12.2553V1.92038Z" fill="#D9A640"/>
<path d="M9.48108 7.48577C9.87595 6.04727 10.3087 4.32677 10.3087 1.92002C10.3087 0.749643 12 0.707268 12 1.92002V7.48577H9.48108Z" fill="#EDB547"/>
<path d="M9.72702 7.55551C10.1508 6.01238 10.564 4.30576 10.564 1.92226C10.564 1.04888 11.7438 1.04663 11.7438 1.92038H12.2549C12.2549 0.358883 10.0525 0.361133 10.0525 1.92226C10.0525 4.24238 9.64827 5.91076 9.23352 7.42013L9.72702 7.55551Z" fill="#D9A640"/>
<path d="M0.75 23.25V18.3064C0.75 18.3064 3.31875 16.6537 4.88287 15.4972C5.7855 14.8305 10.4764 18.525 9.9645 19.7775C9.73913 20.331 7.8765 23.25 7.8765 23.25H0.75Z" fill="#018BC9"/>
<path d="M5.2793 16.1126C5.2793 16.1126 7.8998 13.8773 8.0318 12.9626C8.21255 11.7124 8.26617 10.6519 8.83655 9.1789C9.39117 7.74827 9.84267 6.20177 10.0035 3.74815C10.1172 2.02952 12 2.2234 12 3.55802V17.4904C12 17.4904 11.7184 18.0765 10.2495 18.3934C9.86705 18.4755 9.42492 19.5008 9.42492 19.5008C8.01867 19.6238 5.3363 17.2253 5.2793 16.1126Z" fill="url(#paint1_radial_6738_899)"/>
<path d="M9.25199 19.2679C9.42112 18.9101 9.78412 18.2497 10.1887 18.1627C11.4806 17.8845 11.7634 17.3974 11.7664 17.3921L12.2239 17.6205C12.1897 17.6914 11.8432 18.3289 10.2967 18.6619C10.1659 18.6919 9.85312 19.1576 9.65287 19.6215C9.65287 19.6215 8.75924 19.2424 9.25199 19.2679Z" fill="#D9A640"/>
<path d="M5.11316 15.93C6.09828 15.09 7.69278 13.5349 7.77828 12.9379C7.94291 11.7967 8.00516 10.629 8.59841 9.09824C9.09753 7.80862 9.58316 6.26737 9.74853 3.74287C9.87828 1.76774 12.2558 1.78012 12.2558 3.56962H11.7447C11.7447 2.47462 10.3452 2.47275 10.2593 3.77662C10.0894 6.36937 9.58991 7.95525 9.07503 9.28274C8.52116 10.7134 8.44016 11.9456 8.28491 13.0114C8.15441 13.9136 6.09866 15.753 5.55228 16.2274C5.22678 16.4239 5.11316 15.93 5.11316 15.93Z" fill="#D9A640"/>
<path d="M5.42623 15.5565C5.55411 17.3145 8.35048 19.4726 9.87936 19.2727C10.0039 22.1205 1.77261 17.9201 5.42623 15.5565Z" fill="#018BC9"/>
<path d="M12.2553 1.92038H11.7441V17.7623H12.2553V1.92038Z" fill="#D9A640"/>
</g>
<defs>
<radialGradient id="paint0_radial_6738_899" cx="0" cy="0" r="1" gradientUnits="userSpaceOnUse" gradientTransform="translate(15.616 7.28419) scale(6.86498 10.8322)">
<stop offset="0.4364" stop-color="#FFCC66"/>
<stop offset="0.6631" stop-color="#FDCA63"/>
<stop offset="0.8319" stop-color="#F8C35A"/>
<stop offset="0.9819" stop-color="#EEB749"/>
<stop offset="1" stop-color="#EDB547"/>
</radialGradient>
<radialGradient id="paint1_radial_6738_899" cx="0" cy="0" r="1" gradientUnits="userSpaceOnUse" gradientTransform="translate(8.38411 7.284) rotate(180) scale(6.86528 10.8327)">
<stop offset="0.4364" stop-color="#FFCC66"/>
<stop offset="0.6631" stop-color="#FDCA63"/>
<stop offset="0.8319" stop-color="#F8C35A"/>
<stop offset="0.9819" stop-color="#EEB749"/>
<stop offset="1" stop-color="#EDB547"/>
</radialGradient>
<clipPath id="clip0_6738_899">
<rect width="24" height="24" fill="white"/>
</clipPath>
</defs>
</svg>
