<svg width="24" height="24" viewBox="0 0 24 24" fill="none" xmlns="http://www.w3.org/2000/svg">
<g clip-path="url(#clip0_6738_1382)">
<path d="M6.58621 3.66936C6.59596 3.79536 4.34671 3.98211 4.33621 3.85498C4.32646 3.72936 6.57646 3.54261 6.58621 3.66936Z" fill="#FFE600"/>
<path d="M5.94338 2.73111C6.05738 2.78586 5.09213 4.84799 4.97925 4.79324C4.86563 4.73961 5.8305 2.67711 5.94338 2.73111Z" fill="#FFE600"/>
<path d="M23.25 22.575L22.5821 23.25L8.77722 9.30039L9.44547 8.62576L23.25 22.575Z" fill="url(#paint0_linear_6738_1382)"/>
<path d="M9.66558 9.53364C9.3352 9.86739 2.8717 2.66852 2.8717 2.66852C2.8717 2.66852 9.99408 9.20177 9.66558 9.53364Z" fill="#FFCC00"/>
<path d="M9.6649 9.53401C9.3349 9.20063 16.02 3.11176 16.02 3.11176C16.02 3.11176 9.99415 9.86663 9.6649 9.53401Z" fill="#F59E01"/>
<path d="M9.66485 9.53401C9.99372 9.86663 3.5636 15.6983 3.5636 15.6983C3.5636 15.6983 9.33522 9.20063 9.66485 9.53401Z" fill="#F9C802"/>
<path d="M9.6649 9.53399C9.19803 9.53436 9.66678 1.16211 9.66678 1.16211C9.66678 1.16211 10.1303 9.53361 9.6649 9.53399Z" fill="#F9C802"/>
<path d="M9.66488 9.534C10.1303 9.53325 9.66338 17.9051 9.66338 17.9051C9.66338 17.9051 9.19838 9.53437 9.66488 9.534Z" fill="#F59E01"/>
<path d="M9.66479 9.53399C9.66479 9.06262 17.9497 9.53212 17.9497 9.53212C17.9497 9.53212 9.66442 10.0039 9.66479 9.53399Z" fill="#FFCC00"/>
<path d="M9.66488 9.534C9.66451 10.0039 1.38 9.5355 1.38 9.5355C1.38 9.5355 9.66525 9.06263 9.66488 9.534Z" fill="#FFCC00"/>
<path d="M4.69494 5.53913C4.99156 5.163 9.66519 9.53363 9.66519 9.53363C9.66519 9.53363 4.39831 5.91638 4.69494 5.53913Z" fill="#FF9901"/>
<path d="M14.6339 13.527C14.3377 13.9039 9.66479 9.53326 9.66479 9.53326C9.66479 9.53326 14.9313 13.1509 14.6339 13.527Z" fill="#FF9901"/>
<path d="M13.6201 4.50975C13.9924 4.80975 9.66455 9.53362 9.66455 9.53362C9.66455 9.53362 13.2466 4.21012 13.6201 4.50975Z" fill="#FFCC00"/>
<path d="M5.71019 14.5571C5.33706 14.2575 9.66531 9.53363 9.66531 9.53363C9.66494 9.53401 6.08294 14.8568 5.71019 14.5571Z" fill="#FF6A00"/>
<path d="M8.9475 3.15675C9.42075 3.102 9.66487 9.53362 9.66487 9.53362C9.66487 9.53362 8.47387 3.2115 8.9475 3.15675Z" fill="#FF9901"/>
<path d="M10.3822 15.9101C9.90967 15.9649 9.66479 9.53326 9.66479 9.53326C9.66479 9.53326 10.8558 15.8558 10.3822 15.9101Z" fill="#FF6A00"/>
<path d="M15.976 8.80537C16.0293 9.2835 9.66442 9.53325 9.66479 9.53325C9.66479 9.53325 15.9213 8.32725 15.976 8.80537Z" fill="#FF9901"/>
<path d="M3.35398 10.2619C3.29961 9.78338 9.66523 9.53401 9.66486 9.53363C9.66448 9.53363 3.40798 10.7404 3.35398 10.2619Z" fill="#FFE600"/>
<path d="M2.06925 6.19763C2.31712 5.62163 9.66525 9.534 9.66525 9.534C9.66525 9.534 1.821 6.77363 2.06925 6.19763Z" fill="#F9B700"/>
<path d="M17.2615 12.8696C17.0133 13.4453 9.66479 9.53326 9.66479 9.53326C9.66479 9.53326 17.5094 12.294 17.2615 12.8696Z" fill="#FF6A00"/>
<path d="M12.97 1.85625C13.5397 2.10637 9.66442 9.534 9.66479 9.53362C9.66442 9.53362 12.3997 1.60575 12.97 1.85625Z" fill="#FF9901"/>
<path d="M6.36003 17.2114C5.7904 16.9616 9.66491 9.53363 9.66491 9.53363C9.6649 9.53401 6.92965 17.4611 6.36003 17.2114Z" fill="#FF9901"/>
<path d="M6.63081 1.7456C7.20906 1.51498 9.66493 9.5336 9.66493 9.5336C9.66493 9.5336 6.05256 1.97623 6.63081 1.7456Z" fill="#FF6A00"/>
<path d="M12.6993 17.322C12.121 17.5519 9.66479 9.5329 9.66479 9.5329C9.66479 9.5329 13.2772 17.091 12.6993 17.322Z" fill="#FFE600"/>
<path d="M17.3738 6.46386C17.6007 7.04811 9.66418 9.53361 9.66455 9.53361C9.66493 9.53323 17.1454 5.87961 17.3738 6.46386Z" fill="#FFE600"/>
<path d="M1.9557 12.603C1.72883 12.0195 9.66533 9.53364 9.66458 9.53326C9.66458 9.53364 2.1837 13.1888 1.9557 12.603Z" fill="#FF6A00"/>
<path d="M2.59953 8.46824C2.67828 7.93274 9.66565 9.53362 9.66565 9.53362C9.66565 9.53362 2.5204 9.00337 2.59953 8.46824Z" fill="#FF6A00"/>
<path d="M16.7313 10.599C16.6514 11.1341 9.66479 9.53326 9.66479 9.53326C9.66479 9.53326 16.8097 10.0631 16.7313 10.599Z" fill="#FF9901"/>
<path d="M10.7221 2.39287C11.2523 2.47274 9.66493 9.53399 9.66455 9.53362C9.66455 9.53362 10.1926 2.31299 10.7221 2.39287Z" fill="#FF6A00"/>
<path d="M8.60775 16.6744C8.07788 16.5949 9.66563 9.53363 9.66563 9.53363C9.66525 9.53401 9.138 16.755 8.60775 16.6744Z" fill="#FFCC00"/>
<path d="M5.41609 3.73051C5.84697 3.40876 9.66447 9.53363 9.66447 9.53363C9.66447 9.53363 4.98522 4.05301 5.41609 3.73051Z" fill="#FFE600"/>
<path d="M13.9143 15.3364C13.483 15.6578 9.66479 9.5329 9.66479 9.5329C9.66479 9.5329 14.3444 15.0143 13.9143 15.3364Z" fill="#FF6A00"/>
<path d="M15.4094 5.23764C15.7278 5.67302 9.66442 9.53402 9.66479 9.53364C9.66479 9.53327 15.0899 4.80264 15.4094 5.23764Z" fill="#FF6A00"/>
<path d="M3.92059 13.8293C3.60184 13.3943 9.66559 9.53363 9.66446 9.53363C9.66446 9.53363 4.23971 14.265 3.92059 13.8293Z" fill="#FF9901"/>
<path d="M15.1253 15.0409C15.1253 15.0409 9.31316 9.79727 9.17629 9.65852C8.67304 9.15039 9.29592 8.52077 9.79917 9.02927C9.93642 9.16802 15.1253 15.0409 15.1253 15.0409Z" fill="#FFE600"/>
<path d="M10.5735 10.44L10.3309 12.0701L9.30224 10.779L7.78236 11.3696L8.36699 9.83363L7.08899 8.79413L8.70224 8.54925L8.94449 6.91913L9.97311 8.21025L11.4934 7.62L10.9087 9.15563L12.1867 10.1951L10.5735 10.44Z" fill="url(#paint1_radial_6738_1382)"/>
<path d="M10.2985 10.1621L10.1272 11.3134L9.4004 10.4014L8.32753 10.8188L8.74003 9.73426L7.8374 9.00001L8.97665 8.82676L9.14803 7.67551L9.87478 8.58751L10.9484 8.17051L10.5352 9.25501L11.4378 9.98926L10.2985 10.1621Z" fill="url(#paint2_radial_6738_1382)"/>
<path d="M16.3425 4.35638C16.2067 4.39275 15.5486 1.91625 15.6855 1.8795C15.8205 1.84388 16.4794 4.31925 16.3425 4.35638Z" fill="#F59E01"/>
<path d="M17.2399 3.44997C17.2024 3.5891 14.7517 2.92385 14.7885 2.78585C14.8241 2.64822 17.2755 3.31347 17.2399 3.44997Z" fill="#F59E01"/>
<path d="M3.90384 16.9493C3.76584 16.986 3.09759 14.4716 3.23672 14.4341C3.37434 14.3978 4.04259 16.9121 3.90384 16.9493Z" fill="#F9C802"/>
<path d="M4.81461 16.0294C4.77674 16.1692 2.28824 15.4942 2.32574 15.3547C2.36211 15.2149 4.85136 15.8902 4.81461 16.0294Z" fill="#F9C802"/>
<path d="M10.4377 1.63914C10.3894 1.72389 8.87624 0.841145 8.92536 0.755645C8.97374 0.67202 10.4876 1.55402 10.4377 1.63914Z" fill="#F9C802"/>
<path d="M10.4381 0.755643C10.4876 0.841518 8.97372 1.72427 8.92535 1.63952C8.8766 1.55439 10.3905 0.672018 10.4381 0.755643Z" fill="#F9C802"/>
<path d="M10.5989 18.4519C10.5389 18.5561 8.66653 17.4641 8.72728 17.3587C8.78765 17.2549 10.6597 18.3461 10.5989 18.4519Z" fill="#F59E01"/>
<path d="M10.5994 17.3587C10.6601 17.4649 8.78739 18.5569 8.72701 18.4515C8.66664 18.3469 10.5398 17.2549 10.5994 17.3587Z" fill="#F59E01"/>
<path d="M17.3134 10.5289C17.2043 10.4644 18.3454 8.46639 18.4556 8.53089C18.5655 8.59464 17.4236 10.5934 17.3134 10.5289Z" fill="#FFCC00"/>
<path d="M18.4557 10.5285C18.3451 10.5926 17.2028 8.59424 17.3134 8.53049C17.4237 8.46674 18.5648 10.4647 18.4557 10.5285Z" fill="#FFCC00"/>
<path d="M0.757875 10.5401C0.643125 10.4726 1.83825 8.38088 1.95375 8.44838C2.06775 8.5155 0.87375 10.608 0.757875 10.5401Z" fill="#FFCC00"/>
<path d="M1.95372 10.5401C1.83785 10.6076 0.642349 8.5155 0.757849 8.44838C0.872599 8.38088 2.06772 10.4738 1.95372 10.5401Z" fill="#FFCC00"/>
</g>
<defs>
<linearGradient id="paint0_linear_6738_1382" x1="15.642" y1="16.3092" x2="16.3858" y2="15.5654" gradientUnits="userSpaceOnUse">
<stop stop-color="#99A8AE"/>
<stop offset="0.281" stop-color="#B1BFC7"/>
<stop offset="0.6102" stop-color="#C7D5DE"/>
<stop offset="0.8182" stop-color="#CFDDE6"/>
</linearGradient>
<radialGradient id="paint1_radial_6738_1382" cx="0" cy="0" r="1" gradientUnits="userSpaceOnUse" gradientTransform="translate(9.63768 9.49376) rotate(-45.2982) scale(2.47669 2.47656)">
<stop stop-color="#FFFF57"/>
<stop offset="0.2064" stop-color="#FFF94B"/>
<stop offset="0.5797" stop-color="#FFEA2B"/>
<stop offset="1" stop-color="#FFD500"/>
</radialGradient>
<radialGradient id="paint2_radial_6738_1382" cx="0" cy="0" r="1" gradientUnits="userSpaceOnUse" gradientTransform="translate(9.63773 9.49389) rotate(-45.2982) scale(1.74934 1.74924)">
<stop stop-color="white"/>
<stop offset="0.1226" stop-color="#FFFFF9" stop-opacity="0.8774"/>
<stop offset="0.2842" stop-color="#FFFFE9" stop-opacity="0.7158"/>
<stop offset="0.4676" stop-color="#FFFFCD" stop-opacity="0.5324"/>
<stop offset="0.6671" stop-color="#FFFFA7" stop-opacity="0.3329"/>
<stop offset="0.8773" stop-color="#FFFF77" stop-opacity="0.1227"/>
<stop offset="1" stop-color="#FFFF57" stop-opacity="0"/>
</radialGradient>
<clipPath id="clip0_6738_1382">
<rect width="24" height="24" fill="white"/>
</clipPath>
</defs>
</svg>
