<svg width="24" height="24" viewBox="0 0 24 24" fill="none" xmlns="http://www.w3.org/2000/svg">
<path d="M2.54513 19.7816C3.558 19.2697 7.76062 17.9182 7.76062 17.9182H14.0212C14.0212 17.9182 18.2209 19.2667 19.2281 19.7801C20.6925 20.5241 21 23.2496 21 23.2496H0.75C0.75 23.2496 1.07663 20.523 2.54513 19.7816Z" fill="#302C3B"/>
<path d="M7.5 18.7297C7.5 19.9792 10.875 22.7947 10.875 22.7947C10.875 22.7947 14.25 19.9792 14.25 18.7297V15.7166H7.5V18.7297Z" fill="#FFCC66"/>
<path d="M6.95258 16.3496C7.38308 17.3955 8.82383 19.0084 9.70658 19.3421C10.2642 19.5525 11.486 19.5525 12.0428 19.3421C12.926 19.008 14.3675 17.3955 14.7976 16.3496C15.2202 15.327 6.53145 15.327 6.95258 16.3496Z" fill="#E6B045"/>
<path d="M14.0797 16.086C15.138 18.3683 13.6249 19.4824 10.8754 22.7951V23.2508C10.8754 23.2508 14.7015 18.4474 19.836 19.221C16.4272 15.585 14.0797 16.086 14.0797 16.086Z" fill="#4E5E67"/>
<path d="M7.67031 16.086C7.67031 16.086 5.32281 15.585 1.91406 19.2206C7.04819 18.447 10.8747 23.2504 10.8747 23.2504V22.7948C8.12519 19.482 6.61206 18.3679 7.67031 16.086Z" fill="#4E5E67"/>
<path d="M14.3426 16.1685C14.25 19.5705 12.4361 20.1682 10.8754 22.7947C10.8754 22.7947 14.3764 18.3678 19.0999 18.8925C16.5112 16.2566 14.3426 16.1685 14.3426 16.1685Z" fill="#3AB0A2"/>
<path d="M2.65015 18.8925C7.37365 18.3682 10.8746 22.7947 10.8746 22.7947C9.3139 20.1682 7.50002 19.5705 7.4074 16.1685C7.4074 16.1685 5.23877 16.2566 2.65015 18.8925Z" fill="#3AB0A2"/>
<path d="M17.0401 9.52274C16.0857 9.63787 15.3965 12.828 15.9972 13.6702C16.0816 13.7876 16.5728 13.9755 16.9377 13.2322C17.1398 12.8205 17.7222 12.477 17.903 11.6284C18.1343 10.5409 17.9903 9.40762 17.0401 9.52274Z" fill="#FFCC66"/>
<path d="M4.70993 9.52274C5.6643 9.63787 6.35355 12.828 5.7528 13.6702C5.66843 13.7876 5.17718 13.9755 4.81155 13.2322C4.61018 12.8205 4.02705 12.477 3.84705 11.6284C3.61493 10.5409 3.75968 9.40762 4.70993 9.52274Z" fill="#FFCC66"/>
<path d="M17.0144 10.1336C16.7654 10.212 16.4936 10.5915 16.3466 11.2204C17.2166 11.0336 16.9991 12.4808 16.2427 12.5078C16.2502 12.6536 16.2596 12.8029 16.2779 12.9604C16.6421 12.4324 17.0126 12.6439 17.3797 11.8583C17.7097 11.1503 17.6313 9.94089 17.0144 10.1336Z" fill="#DB9D3A"/>
<path d="M5.40337 11.2189C5.25525 10.5904 4.9845 10.2116 4.7355 10.1333C4.11937 9.94052 4.03987 11.1499 4.37062 11.8579C4.73775 12.6439 5.10825 12.432 5.47275 12.96C5.49037 12.8025 5.5005 12.6525 5.5065 12.5066C4.758 12.4721 4.5435 11.0426 5.40337 11.2189Z" fill="#DB9D3A"/>
<path d="M10.8746 3.3877C6.73948 3.3877 4.74711 6.51107 4.99611 10.8536C5.04598 11.7273 5.58936 14.5769 6.10123 15.5996C6.62548 16.6454 8.37898 18.2583 9.45298 18.5921C10.1321 18.8024 11.6179 18.8024 12.2962 18.5921C13.3706 18.2579 15.1249 16.6454 15.6484 15.5996C16.1617 14.5769 16.7036 11.7281 16.7527 10.8536C17.0036 6.51107 15.0112 3.3877 10.8746 3.3877Z" fill="#FFCC66"/>
<path d="M15.3678 9.20401C14.4224 8.70301 12.6123 8.67901 11.938 9.02813C11.7929 9.09488 11.8889 9.56851 12.0104 9.52388C12.9494 9.15263 14.4655 9.14438 15.3453 9.55538C15.4623 9.60938 15.5114 9.27376 15.3678 9.20401Z" fill="#966F42"/>
<path d="M6.38211 9.20401C7.32748 8.70301 9.13686 8.67901 9.81186 9.02813C9.95623 9.09488 9.86098 9.56851 9.73948 9.52388C8.79823 9.15263 7.28436 9.14438 6.40386 9.55538C6.28761 9.60938 6.23923 9.27376 6.38211 9.20401Z" fill="#966F42"/>
<path d="M11.991 13.5405C11.8733 13.4584 11.5962 13.5851 10.8747 13.5851C10.1547 13.5851 9.87715 13.4584 9.75903 13.5405C9.61765 13.6403 9.84265 14.0884 10.8747 14.0884C11.9074 14.0884 12.1328 13.6403 11.991 13.5405Z" fill="#DB9D3A"/>
<path d="M10.8746 15.2423C9.94502 14.9689 8.56689 15.372 8.56689 15.372C9.09114 15.9424 9.4759 16.6823 10.8746 16.6823C12.4778 16.6823 12.7504 15.8423 13.1831 15.372C13.1831 15.3716 11.8046 14.9666 10.8746 15.2423Z" fill="#DB9D3A"/>
<path d="M8.9126 15.4684C9.88835 16.2844 11.8571 16.29 12.8377 15.4684C11.7982 15.5123 9.95922 15.513 8.9126 15.4684Z" fill="white"/>
<path d="M9.95474 10.9069C9.98999 11.1806 9.80399 11.5043 9.28987 11.7476C8.96324 11.9021 8.28262 12.0836 7.39012 11.7075C6.99037 11.5391 6.59999 11.0149 6.63487 10.7239C7.11862 9.81265 9.50136 9.67952 9.95474 10.9069Z" fill="white"/>
<path d="M8.33806 11.8238C8.85417 11.8238 9.27256 11.4054 9.27256 10.8893C9.27256 10.3732 8.85417 9.95477 8.33806 9.95477C7.82195 9.95477 7.40356 10.3732 7.40356 10.8893C7.40356 11.4054 7.82195 11.8238 8.33806 11.8238Z" fill="url(#paint0_linear_6738_1144)"/>
<path d="M7.87012 10.872C7.87012 11.5185 8.80612 11.5185 8.80612 10.872C8.80612 10.272 7.87012 10.272 7.87012 10.872Z" fill="#1A1626"/>
<path d="M7.72803 10.6095C7.72803 10.8806 8.1199 10.8806 8.1199 10.6095C8.1199 10.3593 7.72803 10.3593 7.72803 10.6095Z" fill="#AB968C"/>
<path d="M9.95926 10.9429C9.57901 9.72414 6.98701 9.90414 6.63489 10.7239C6.76501 9.67427 9.63526 9.39677 9.95926 10.9429Z" fill="#DB9D3A"/>
<path d="M11.7952 10.9069C11.7599 11.1806 11.9452 11.5043 12.4601 11.7476C12.7867 11.9021 13.4666 12.0836 14.3591 11.7075C14.7603 11.5391 15.1499 11.0149 15.1151 10.7239C14.6313 9.81265 12.2478 9.67952 11.7952 10.9069Z" fill="white"/>
<path d="M13.3906 11.8238C13.9067 11.8238 14.3251 11.4054 14.3251 10.8893C14.3251 10.3732 13.9067 9.95477 13.3906 9.95477C12.8744 9.95477 12.4561 10.3732 12.4561 10.8893C12.4561 11.4054 12.8744 11.8238 13.3906 11.8238Z" fill="url(#paint1_linear_6738_1144)"/>
<path d="M12.9232 10.872C12.9232 11.5185 13.8592 11.5185 13.8592 10.872C13.8592 10.272 12.9232 10.272 12.9232 10.872Z" fill="#1A1626"/>
<path d="M12.7804 10.6095C12.7804 10.8806 13.173 10.8806 13.173 10.6095C13.173 10.3593 12.7804 10.3593 12.7804 10.6095Z" fill="#AB968C"/>
<path d="M11.7908 10.9429C12.1703 9.72489 14.7608 9.89927 15.1151 10.7239C14.9835 9.67427 12.1148 9.39677 11.7908 10.9429Z" fill="#DB9D3A"/>
<path d="M16.1568 4.42239C15.2516 3.19951 13.5948 2.27551 10.8746 2.27551C8.15509 2.27551 6.49909 3.19951 5.59384 4.42239C4.31209 6.15376 4.74709 11.922 5.31784 11.922C5.40784 11.922 5.42096 9.90451 5.59384 8.50839C5.73371 7.37251 6.00409 6.27001 6.31534 6.09001C7.26446 5.53989 9.09484 5.95164 10.8746 5.95164C12.6543 5.95164 14.4855 5.53989 15.4353 6.09001C15.7458 6.27001 16.0155 7.37251 16.1568 8.50839C16.329 9.90451 16.3421 11.922 16.4321 11.922C17.0028 11.922 17.4378 6.15376 16.1568 4.42239Z" fill="#3AB0A2"/>
<path d="M6.63455 13.3597C5.0723 10.8753 4.08417 6.56735 12.7804 5.85485C6.11442 -0.493903 0.135047 8.2316 6.63455 13.3597Z" fill="#3AB0A2"/>
<path d="M7.40141 12.0825C3.79128 6.12935 8.73566 2.89122 11.8602 2.85972C6.05141 -1.17153 0.416283 7.9421 7.40141 12.0825Z" fill="url(#paint2_linear_6738_1144)"/>
<path d="M10.7727 9.05551C8.00257 9.72713 6.21007 6.25913 8.29619 4.74301C12.3799 1.77488 16.9017 6.45038 16.5732 5.28076C15.7726 2.43076 13.6609 0.749634 11.0097 0.749634C1.77232 0.749634 5.15857 12.9139 10.7727 9.05551Z" fill="url(#paint3_linear_6738_1144)"/>
<path d="M2.79712 23.25C2.79712 23.25 0.75 20.6366 0.75 18.0968C0.75 14.6565 6.54787 17.6111 9.9135 23.25H2.79712Z" fill="url(#paint4_radial_6738_1144)"/>
<path d="M4.58851 19.0522C4.29976 19.7317 4.78201 19.4834 5.08651 20.0178C5.26314 20.3264 5.37639 20.3876 5.68651 20.2694C5.88714 20.1929 6.23439 20.3864 6.38439 20.2484C6.95664 19.7219 5.05239 17.9594 4.58851 19.0522Z" fill="url(#paint5_radial_6738_1144)"/>
<path d="M8.028 22.4958C8.14088 22.3773 8.01038 22.1707 8.01863 22.0327C8.0385 21.7008 8.27438 21.7136 8.05875 21.348C7.81913 20.9426 7.10963 20.577 6.66863 20.781C5.994 21.093 6.408 21.5636 6.71475 22.0631C6.93225 22.4163 7.67138 22.8746 8.028 22.4958Z" fill="url(#paint6_radial_6738_1144)"/>
<path d="M3.65618 19.2698C3.93068 18.801 3.99218 18.5314 3.41655 18.1331C2.84468 17.736 2.43818 17.4593 1.87905 17.8886C1.20143 18.4118 1.99568 18.6 2.1603 19.1355C2.35118 19.7516 3.3633 19.7693 3.65618 19.2698Z" fill="url(#paint7_radial_6738_1144)"/>
<path d="M4.20263 20.9768C3.68101 20.4716 3.18451 20.3048 2.55526 20.883C2.20876 21.201 2.57588 21.2528 2.65988 21.528C2.74763 21.819 2.47538 22.0065 2.86576 22.1681C3.16088 22.2904 4.17526 22.7869 4.49888 22.4078C4.81876 22.0346 4.45688 21.2235 4.20263 20.9768Z" fill="url(#paint8_radial_6738_1144)"/>
<path d="M21.5441 16.1828L20.2395 15.8329C20.1619 14.9982 20.3156 14.1087 20.7499 13.6253C21.2824 13.0313 22.6016 13.1528 22.3875 14.5343C22.2589 15.3679 21.5441 16.1828 21.5441 16.1828Z" fill="#302C3B"/>
<path d="M20.4865 15.9292L20.359 15.9007C20.359 15.9007 20.1708 14.9002 20.6219 13.9803C20.29 15.1447 20.4865 15.9292 20.4865 15.9292Z" fill="#1A1626"/>
<path d="M20.6351 15.9611L20.5076 15.9334C20.5076 15.9334 20.5023 14.7214 20.9534 13.8011C20.6219 14.9659 20.6351 15.9611 20.6351 15.9611Z" fill="#1A1626"/>
<path d="M20.7964 16.4873L20.6674 16.4588C20.6674 16.4588 20.6629 15.2475 21.114 14.3273C20.7825 15.4913 20.7964 16.4873 20.7964 16.4873Z" fill="#1A1626"/>
<path d="M21.6641 11.844C21.6641 11.844 22.8023 12.225 22.422 14.4716C22.3358 14.9782 22.2323 13.7295 21.9454 14.1994C21.8224 14.4004 21.7556 13.548 21.3904 13.914C21.1459 14.1592 21.3128 13.3166 20.7833 13.6605C20.3205 13.9609 21.6863 12.6292 21.6641 11.844Z" fill="#E81C27"/>
<path d="M17.9948 23.25C17.9948 23.25 19.1104 19.8278 19.6654 17.8148C20.4491 17.3539 20.9741 18.1654 20.9741 18.1654C20.4199 20.1788 19.5806 23.25 19.5806 23.25H17.9948Z" fill="#7D625A"/>
<path d="M21.544 16.1828C21.4555 16.503 21.0622 17.8451 20.974 18.165C20.5514 18.0023 20.1179 17.8684 19.6653 17.8144C19.7538 17.4941 20.1509 16.1531 20.2394 15.8329C20.6924 15.8869 21.1214 16.02 21.544 16.1828Z" fill="#B3C2C6"/>
<defs>
<linearGradient id="paint0_linear_6738_1144" x1="8.33784" y1="11.8238" x2="8.33784" y2="9.95673" gradientUnits="userSpaceOnUse">
<stop stop-color="#A6694A"/>
<stop offset="1" stop-color="#4F2A1E"/>
</linearGradient>
<linearGradient id="paint1_linear_6738_1144" x1="13.3906" y1="11.8238" x2="13.3906" y2="9.95673" gradientUnits="userSpaceOnUse">
<stop stop-color="#A6694A"/>
<stop offset="1" stop-color="#4F2A1E"/>
</linearGradient>
<linearGradient id="paint2_linear_6738_1144" x1="4.16201" y1="6.96822" x2="11.8602" y2="6.96822" gradientUnits="userSpaceOnUse">
<stop offset="0.0061" stop-color="#00D6B3"/>
<stop offset="0.2755" stop-color="#1BC4AB"/>
<stop offset="0.5587" stop-color="#32B5A4"/>
<stop offset="0.7394" stop-color="#3AB0A2"/>
</linearGradient>
<linearGradient id="paint3_linear_6738_1144" x1="5.26068" y1="5.28057" x2="16.5898" y2="5.28057" gradientUnits="userSpaceOnUse">
<stop offset="0.0061" stop-color="#00D6B3"/>
<stop offset="0.2558" stop-color="#16C8AD"/>
<stop offset="0.6241" stop-color="#30B6A5"/>
<stop offset="0.8424" stop-color="#3AB0A2"/>
</linearGradient>
<radialGradient id="paint4_radial_6738_1144" cx="0" cy="0" r="1" gradientUnits="userSpaceOnUse" gradientTransform="translate(5.33167 19.938) scale(3.99757)">
<stop stop-color="#FDDF98"/>
<stop offset="1" stop-color="#D6B768"/>
</radialGradient>
<radialGradient id="paint5_radial_6738_1144" cx="0" cy="0" r="1" gradientUnits="userSpaceOnUse" gradientTransform="translate(5.49537 19.5135) scale(0.908437)">
<stop offset="0.2121" stop-color="#FF3B3B"/>
<stop offset="0.4183" stop-color="#F63131"/>
<stop offset="0.7712" stop-color="#DE1615"/>
<stop offset="1" stop-color="#CC0100"/>
</radialGradient>
<radialGradient id="paint6_radial_6738_1144" cx="0" cy="0" r="1" gradientUnits="userSpaceOnUse" gradientTransform="translate(7.227 21.6804) scale(0.939975)">
<stop stop-color="#FFE357"/>
<stop offset="0.1836" stop-color="#FFDF51"/>
<stop offset="0.4321" stop-color="#FFD440"/>
<stop offset="0.7164" stop-color="#FFC123"/>
<stop offset="1" stop-color="#FFAA00"/>
</radialGradient>
<radialGradient id="paint7_radial_6738_1144" cx="0" cy="0" r="1" gradientUnits="userSpaceOnUse" gradientTransform="translate(2.73443 18.6475) scale(1.05248)">
<stop stop-color="#2289C7"/>
<stop offset="0.2907" stop-color="#1A7EB9"/>
<stop offset="0.842" stop-color="#066093"/>
<stop offset="1" stop-color="#005687"/>
</radialGradient>
<radialGradient id="paint8_radial_6738_1144" cx="0" cy="0" r="1" gradientUnits="userSpaceOnUse" gradientTransform="translate(3.5171 21.5325) scale(1.06237)">
<stop stop-color="#9BE022"/>
<stop offset="0.2668" stop-color="#91D422"/>
<stop offset="0.7474" stop-color="#78B423"/>
<stop offset="1" stop-color="#69A123"/>
</radialGradient>
</defs>
</svg>
