<svg width="24" height="24" viewBox="0 0 24 24" fill="none" xmlns="http://www.w3.org/2000/svg">
<g clip-path="url(#clip0_6687_1928)">
<path d="M7.78651 3.49162C7.72089 2.92125 11.3914 5.13112 11.5399 8.92575C11.5523 9.1695 9.83101 8.94525 8.77951 8.0985C8.77914 8.0985 8.02126 5.565 7.78651 3.49162Z" fill="#CFD8DD"/>
<path d="M8.0639 4.26751C8.0264 3.86701 10.4789 5.85339 10.5404 8.48289C10.546 8.65202 9.38765 8.27889 8.68678 7.56339C8.6864 7.56339 8.20115 5.72401 8.0639 4.26751Z" fill="#6E8189"/>
<path d="M5.71387 7.57652L7.29262 9.74815C8.56987 9.6034 9.61162 8.5549 9.76312 7.2814L7.61999 5.72815C6.88874 6.14402 5.71387 7.57652 5.71387 7.57652Z" fill="url(#paint0_radial_6687_1928)"/>
<path d="M4.66992 6.14175L6.3848 8.49975C6.3848 8.49975 7.2803 6.74287 8.51142 6.37462L6.17517 4.68112C5.60855 5.05425 4.66992 6.14175 4.66992 6.14175Z" fill="url(#paint1_radial_6687_1928)"/>
<path d="M3.63672 4.72087L5.45809 7.22587C5.45809 7.22587 6.09784 5.78324 7.23034 5.44687L4.74597 3.64612C4.33872 3.94762 3.63672 4.72087 3.63672 4.72087Z" fill="url(#paint2_radial_6687_1928)"/>
<path d="M2.61304 3.31202L4.51466 5.92764C4.51466 5.92764 5.16416 4.85702 5.93254 4.50527L3.32854 2.61902C3.07316 2.82827 2.61304 3.31202 2.61304 3.31202Z" fill="url(#paint3_radial_6687_1928)"/>
<path d="M1.5968 1.91398L3.5558 4.60873C3.5558 4.60873 4.0598 3.72598 4.61143 3.54823L1.92268 1.59973C1.81055 1.70061 1.5968 1.91398 1.5968 1.91398Z" fill="url(#paint4_radial_6687_1928)"/>
<path d="M2.5815 3.26925C2.5815 3.26925 2.811 2.7555 3.26962 2.5755L0.75 0.75L2.5815 3.26925Z" fill="url(#paint5_radial_6687_1928)"/>
<path d="M10.2788 5.94151C12.6304 9.26363 17.3108 11.6809 20.0809 9.61088C19.3107 4.88926 14.2261 3.48038 10.2788 5.94151Z" fill="#FA5393"/>
<path d="M12.0042 6.83361C13.9328 10.6264 18.6263 14.0674 22.1187 12.6772C22.2282 7.87724 16.8807 5.33061 12.0042 6.83361Z" fill="#FF8CBC"/>
<path d="M14.9163 8.60852C15.7911 12.7706 19.234 18.084 22.9686 17.646C23.9286 11.2106 20.0163 8.41952 14.9163 8.60852Z" fill="#FA5393"/>
<path d="M17.8447 11.2477C17.1843 15.4485 19.015 18.8021 21.7687 21.2471C25.3447 18.6101 21.8167 11.5384 17.8447 11.2477Z" fill="#FF8CBC"/>
<path d="M11.9588 6.78339C9.96042 9.90076 11.7293 17.142 11.7293 17.142C14.5842 17.7769 12.1339 23.25 14.0149 23.25C19.353 23.25 21.7688 21.2471 21.7688 21.2471C22.5927 14.0963 16.0643 7.04739 11.9588 6.78339Z" fill="url(#paint6_linear_6687_1928)"/>
<path d="M14.1311 10.5664C10.4505 10.2911 11.7292 17.142 11.7292 17.142C14.5841 17.7769 12.1338 23.25 14.0148 23.25C13.3098 19.3376 17.0688 15.7121 14.1311 10.5664Z" fill="url(#paint7_linear_6687_1928)"/>
<path d="M13.6649 7.43439C13.4767 6.58351 12.547 3.19876 10.5933 2.25226C10.357 2.13751 10.1568 6.54864 10.1568 6.54864C7.72454 9.24489 1.59817 15.0859 0.892795 15.9383C0.185545 16.7899 2.33317 19.3144 2.33317 19.3144C2.93017 19.3849 3.67417 19.89 3.97867 20.1053C4.54117 20.5046 5.90805 18.9596 7.43992 18.6743C13.2048 17.5939 14.3474 15.6889 14.5394 13.8938C14.9872 9.70989 13.6649 7.43439 13.6649 7.43439Z" fill="url(#paint8_linear_6687_1928)"/>
<path d="M2.37108 17.019C2.17233 17.1596 1.68708 17.2642 1.54008 17.0741C1.3927 16.884 1.64133 16.47 1.83933 16.3301C2.03658 16.191 2.31708 16.2315 2.46333 16.4212C2.61108 16.611 2.56945 16.8799 2.37108 17.019Z" fill="#302C3B"/>
<path d="M6.09375 15.9788C6.04875 16.8611 5.60362 17.727 4.92 18.3563C4.57237 18.6683 4.16512 18.9188 3.72562 19.08C3.28687 19.2443 2.81962 19.3189 2.3595 19.3121C3.23587 19.0463 4.03237 18.675 4.65937 18.0949C4.97512 17.8103 5.24887 17.4818 5.48662 17.1274C5.7195 16.7685 5.931 16.3898 6.09375 15.9788Z" fill="#302C3B"/>
<path d="M6.27588 12.9308C6.27588 12.9308 6.62613 12.6731 6.94225 12.7361C6.94225 12.7361 6.50913 13.1648 6.83463 13.8304C6.83463 13.8304 7.18638 13.0241 7.79163 12.9746C7.79163 12.9746 7.37763 13.5611 7.90638 14.0959C7.90638 14.0959 8.01738 13.2799 8.80225 13.0354C8.80225 13.0354 8.692 13.4633 9.07525 13.974C9.07525 13.974 8.95713 13.2368 9.493 12.8783C10.0311 12.5194 10.6278 12.3229 10.9323 11.4049C10.9323 11.4049 9.62613 12.7391 7.8235 12.3701C7.35588 12.2749 6.65313 12.1485 6.27588 12.9308Z" fill="#302C3B"/>
<path d="M10.5998 2.90249C10.6613 2.50424 12.5528 5.02912 11.9678 7.59337C11.9311 7.75874 10.5402 7.30049 10.3958 6.25012C10.3958 6.25012 10.376 4.34812 10.5998 2.90249Z" fill="#99A8AE"/>
<path d="M1.90234 15.5873C1.70059 15.7106 1.73659 15.7868 1.91359 15.7208C2.09134 15.6551 2.95684 15.4358 3.02959 16.3485C3.02959 16.3485 3.07834 16.7569 3.18821 16.3515C3.29659 15.9443 3.03746 14.8935 1.90234 15.5873Z" fill="#99A8AE"/>
<path d="M10.2071 5.58862C10.2071 5.58862 9.66259 9.01837 13.9391 11.7637C13.9391 11.7637 5.90659 9.80137 10.2071 5.58862Z" fill="#FA5393"/>
<path d="M21.3071 14.4506C15.1875 12.2962 15.456 5.83798 13.3113 6.00298C12.2235 11.3914 17.9148 14.259 21.3071 14.4506Z" fill="#FA5393"/>
</g>
<defs>
<radialGradient id="paint0_radial_6687_1928" cx="0" cy="0" r="1" gradientUnits="userSpaceOnUse" gradientTransform="translate(7.77607 7.76397) rotate(-44.9554) scale(1.70363 10.2218)">
<stop stop-color="#C28FEF"/>
<stop offset="0.6667" stop-color="#B357E6"/>
</radialGradient>
<radialGradient id="paint1_radial_6687_1928" cx="0" cy="0" r="1" gradientUnits="userSpaceOnUse" gradientTransform="translate(6.41558 6.40601) rotate(-44.9554) scale(1.48177 8.89061)">
<stop stop-color="#75D6FF"/>
<stop offset="0.1023" stop-color="#67CDF8"/>
<stop offset="0.6667" stop-color="#1A9ED6"/>
</radialGradient>
<radialGradient id="paint2_radial_6687_1928" cx="0" cy="0" r="1" gradientUnits="userSpaceOnUse" gradientTransform="translate(5.25827 5.25158) rotate(-44.9554) scale(1.40406 8.42433)">
<stop stop-color="#78FFC7"/>
<stop offset="0.0538" stop-color="#72F9C3"/>
<stop offset="0.7212" stop-color="#25B399"/>
</radialGradient>
<radialGradient id="paint3_radial_6687_1928" cx="0" cy="0" r="1" gradientUnits="userSpaceOnUse" gradientTransform="translate(4.0936 4.08771) rotate(-44.9554) scale(1.33537 8.01223)">
<stop stop-color="#DCFF91"/>
<stop offset="0.1798" stop-color="#C5EF74"/>
<stop offset="0.6667" stop-color="#88C427"/>
</radialGradient>
<radialGradient id="paint4_radial_6687_1928" cx="0" cy="0" r="1" gradientUnits="userSpaceOnUse" gradientTransform="translate(2.92069 2.9174) rotate(-44.9554) scale(1.27823 7.66937)">
<stop stop-color="#FFED80"/>
<stop offset="0.2612" stop-color="#FFD24C"/>
<stop offset="0.6667" stop-color="#FFAA00"/>
</radialGradient>
<radialGradient id="paint5_radial_6687_1928" cx="0" cy="0" r="1" gradientUnits="userSpaceOnUse" gradientTransform="translate(1.83871 1.83712) rotate(-44.9554) scale(1.14131 6.84787)">
<stop stop-color="#FF8E80"/>
<stop offset="0.2727" stop-color="#F44C45"/>
<stop offset="0.6061" stop-color="#E80000"/>
</radialGradient>
<linearGradient id="paint6_linear_6687_1928" x1="16.4231" y1="23.25" x2="16.4231" y2="14.21" gradientUnits="userSpaceOnUse">
<stop offset="0.2545" stop-color="#CFD8DD"/>
<stop offset="0.6086" stop-color="#D7DFE3"/>
<stop offset="1" stop-color="#E6EBEF"/>
</linearGradient>
<linearGradient id="paint7_linear_6687_1928" x1="11.9002" y1="15.9433" x2="15.5511" y2="17.6309" gradientUnits="userSpaceOnUse">
<stop stop-color="#302C3B" stop-opacity="0.2"/>
<stop offset="1" stop-color="#302C3B" stop-opacity="0"/>
</linearGradient>
<linearGradient id="paint8_linear_6687_1928" x1="9.97845" y1="20.529" x2="7.92322" y2="14.1109" gradientUnits="userSpaceOnUse">
<stop offset="0.2545" stop-color="#CFD8DD"/>
<stop offset="0.6086" stop-color="#D7DFE3"/>
<stop offset="1" stop-color="#E6EBEF"/>
</linearGradient>
<clipPath id="clip0_6687_1928">
<rect width="24" height="24" fill="white"/>
</clipPath>
</defs>
</svg>
