<svg width="24" height="24" viewBox="0 0 24 24" fill="none" xmlns="http://www.w3.org/2000/svg">
<g clip-path="url(#clip0_6687_1963)">
<path d="M12 23.25C18.2132 23.25 23.25 18.2132 23.25 12C23.25 5.7868 18.2132 0.75 12 0.75C5.7868 0.75 0.75 5.7868 0.75 12C0.75 18.2132 5.7868 23.25 12 23.25Z" fill="url(#paint0_linear_6687_1963)"/>
<path d="M13.5461 7.80525C12.6622 8.25713 11.3366 8.25713 10.4527 7.80525C9.50849 7.30988 8.35574 6.99188 6.97499 6.86813C5.62761 6.747 2.76936 6.75113 1.33986 7.26638C1.17561 7.32488 1.01511 7.401 0.858736 7.48275C0.770986 7.52888 0.752986 7.56225 0.752986 7.73025V7.94738C0.752986 8.35538 0.703111 8.19713 0.988111 8.367C1.54311 8.69963 1.85849 9.56288 2.02724 10.7513C2.26799 12.4841 3.09786 13.5694 4.44711 14.088C5.69886 14.5676 7.09874 14.5515 8.34111 14.0449C9.02024 13.767 9.61611 13.3279 10.0901 12.615C10.9219 11.3655 10.6725 10.5859 11.1007 9.51263C11.4742 8.5755 12.5239 8.5755 12.8981 9.51263C13.3275 10.5859 13.0781 11.3655 13.9087 12.615C14.382 13.3275 14.979 13.7666 15.6585 14.0449C16.9001 14.5519 18.3 14.568 19.5517 14.088C20.9006 13.569 21.7316 12.4841 21.972 10.7513C22.1404 9.56288 22.4561 8.69963 23.0111 8.367C23.2961 8.19713 23.2462 8.35575 23.2462 7.94738V7.73025C23.2462 7.56225 23.2279 7.5285 23.1405 7.48275C22.9849 7.401 22.8229 7.32488 22.6597 7.26638C21.2299 6.75113 18.372 6.74663 17.025 6.86813C15.6435 6.99188 14.49 7.30988 13.5461 7.80525Z" fill="url(#paint1_linear_6687_1963)"/>
<path opacity="0.3" d="M14.1368 8.56612C13.5991 9.04312 14.0873 12.4957 15.7193 13.1347C16.7374 13.5334 18.7392 13.7745 20.1226 12.555C21.2554 11.5564 21.5003 8.53274 20.6948 8.06287C19.8098 7.54612 15.2866 7.54612 14.1368 8.56612Z" fill="url(#paint2_linear_6687_1963)"/>
<path opacity="0.3" d="M9.93379 8.56724C10.4715 9.04424 9.98329 12.4972 8.35167 13.1355C7.33317 13.5341 5.33142 13.776 3.94767 12.5557C2.81479 11.5575 2.57029 8.53424 3.37542 8.06362C4.26042 7.54687 8.78367 7.54687 9.93379 8.56724Z" fill="url(#paint3_linear_6687_1963)"/>
<path d="M9.24711 18.7511C12.1534 19.5034 15.7245 18.3701 17.232 16.0121C17.3554 15.8186 17.1634 15.6135 16.9695 15.7669C15.3941 17.0104 12.0499 17.9362 9.60111 17.2204C8.66361 16.9459 8.25598 18.4942 9.24711 18.7511Z" fill="#1A1626"/>
</g>
<defs>
<linearGradient id="paint0_linear_6687_1963" x1="12" y1="23.25" x2="12" y2="0.750188" gradientUnits="userSpaceOnUse">
<stop stop-color="#FF9500"/>
<stop offset="0.0934" stop-color="#FF9F03"/>
<stop offset="0.4902" stop-color="#FFC710"/>
<stop offset="0.8062" stop-color="#FFDF17"/>
<stop offset="1" stop-color="#FFE81A"/>
</linearGradient>
<linearGradient id="paint1_linear_6687_1963" x1="12.0002" y1="14.4368" x2="12.0002" y2="6.8031" gradientUnits="userSpaceOnUse">
<stop stop-color="#1A1626"/>
<stop offset="0.4251" stop-color="#1F1B2B"/>
<stop offset="0.9255" stop-color="#2D2938"/>
<stop offset="1" stop-color="#302C3B"/>
</linearGradient>
<linearGradient id="paint2_linear_6687_1963" x1="17.5478" y1="13.4583" x2="17.5478" y2="7.72248" gradientUnits="userSpaceOnUse">
<stop stop-color="#708694"/>
<stop offset="1" stop-color="#C2DFF0"/>
</linearGradient>
<linearGradient id="paint3_linear_6687_1963" x1="6.52279" y1="13.4597" x2="6.52279" y2="7.72357" gradientUnits="userSpaceOnUse">
<stop stop-color="#708694"/>
<stop offset="1" stop-color="#C2DFF0"/>
</linearGradient>
<clipPath id="clip0_6687_1963">
<rect width="24" height="24" fill="white"/>
</clipPath>
</defs>
</svg>
