<svg width="24" height="24" viewBox="0 0 24 24" fill="none" xmlns="http://www.w3.org/2000/svg">
<g clip-path="url(#clip0_6687_1865)">
<path d="M21.1638 8.42476C19.0435 6.48789 6.4758 11.5455 1.45455 14.5785C1.31842 15.2168 1.18117 15.8464 1.0293 16.4618C3.22267 18.465 5.61442 20.8849 7.80667 22.8885C15.4964 18.5573 21.4188 10.9564 21.4188 10.9564C21.3138 10.0988 21.2913 9.29776 21.1638 8.42476Z" fill="#529320"/>
<path d="M7.83868 22.3141C5.1713 19.8004 1.1228 16.0782 1.1228 16.0782C1.1228 16.0782 5.82943 20.6018 7.82443 22.5706C16.1806 17.6749 21.3413 10.4562 21.3413 10.4562C21.3413 10.4562 14.9356 18.5663 7.83868 22.3141Z" fill="#447A1B"/>
<path d="M7.87022 21.7425C5.06147 19.1047 1.2511 15.6386 1.2511 15.6386C1.2511 15.6386 5.00522 19.2693 7.85635 21.9937C16.2886 17.1247 21.2708 9.87183 21.2708 9.87183C21.2708 9.87183 15.7066 17.442 7.87022 21.7425Z" fill="#447A1B"/>
<path d="M7.9096 21.033C5.08847 18.4691 1.39172 15.1016 1.39172 15.1016C1.39172 15.1016 5.10535 18.6513 7.8946 21.3071C16.2451 16.6335 21.209 9.17059 21.209 9.17059C21.209 9.17059 15.8506 16.7452 7.9096 21.033Z" fill="#447A1B"/>
<path d="M7.93884 20.499C5.77734 18.5265 3.61659 16.5533 1.45471 14.5785C6.82434 11.5444 11.3562 7.40627 14.6791 2.50427C16.841 4.47677 19.0025 6.44965 21.164 8.42477C17.8407 13.3279 13.3088 17.4649 7.93884 20.499Z" fill="#92C932"/>
<path d="M7.42604 19.1438C5.99616 17.8388 4.56741 16.5341 3.13904 15.2291C3.22641 15.1778 3.31416 15.1256 3.40154 15.0739C3.69066 14.9036 3.72966 14.583 3.49304 14.3678C3.42254 14.3018 3.35016 14.2365 3.27966 14.1713C7.59966 11.514 11.3212 8.11613 14.2323 4.17076C14.3032 4.23601 14.3752 4.30126 14.446 4.36613C14.6827 4.58176 15.0325 4.54576 15.22 4.28213C15.2763 4.20226 15.334 4.12126 15.3899 4.04138C16.819 5.34638 18.2485 6.65176 19.6777 7.95601C19.6214 8.03588 19.564 8.11576 19.5074 8.19638C19.3199 8.46001 19.3544 8.84738 19.5914 9.06376C19.6627 9.12976 19.7343 9.19538 19.8055 9.25913C16.8955 13.2045 13.1729 16.6031 8.85254 19.2619C8.78091 19.1959 8.70966 19.1303 8.63879 19.0643C8.40291 18.8498 7.97729 18.8175 7.68966 18.9889C7.60116 19.041 7.51379 19.0924 7.42604 19.1438ZM4.06491 15.2839C5.22591 16.3436 6.38729 17.4049 7.54829 18.4646C7.99229 18.3154 8.51354 18.3503 8.90841 18.5663C12.862 16.0583 16.2978 12.9199 19.0465 9.30826C18.8099 8.94863 18.7705 8.47238 18.9344 8.06738C17.7727 7.00688 16.6113 5.94638 15.4503 4.88588C15.13 5.14951 14.6958 5.19188 14.3305 5.00213C11.5818 8.61301 8.14604 11.7514 4.19091 14.2601C4.39866 14.5939 4.35254 14.991 4.06491 15.2839Z" fill="#529320"/>
<path d="M12.2688 10.0286C12.8451 10.0286 13.3548 10.227 13.7841 10.6196C14.4198 11.2001 14.614 11.8725 14.3451 12.5648C13.978 13.5113 12.8684 14.2256 11.764 14.2256C11.1299 14.2256 10.5348 13.9883 10.0428 13.5394C9.48402 13.0294 9.32877 12.4406 9.58077 11.7911C9.96364 10.803 11.1449 10.0286 12.2688 10.0286ZM12.2688 9.46613C9.95427 9.4665 7.67539 12.138 9.66364 13.9545C10.3071 14.5418 11.0459 14.7881 11.7644 14.7881C14.1258 14.7881 16.2768 12.1339 14.1636 10.2045C13.5951 9.68475 12.9303 9.46613 12.2688 9.46613Z" fill="#529320"/>
<path d="M8.15926 17.4889C7.51463 16.9005 8.64938 15.9548 9.29363 16.5435C9.98851 17.178 8.85413 18.123 8.15926 17.4889Z" fill="#7AB51D"/>
<path d="M5.49966 15.0397C4.85466 14.451 5.98941 13.5052 6.63328 14.0943C7.32778 14.7285 6.19416 15.6738 5.49966 15.0397Z" fill="#7AB51D"/>
<path d="M17.0067 9.70313C16.1956 9.37988 16.9227 8.09513 17.7334 8.41801C18.6079 8.76638 17.8804 10.0515 17.0067 9.70313Z" fill="#7AB51D"/>
<path d="M14.3554 7.17976C13.5293 6.89776 14.19 5.57814 15.0161 5.85939C15.9068 6.16164 15.246 7.48201 14.3554 7.17976Z" fill="#7AB51D"/>
<path d="M7.98608 9.99487C7.98608 9.99487 10.8323 13.3211 14.4601 15.9262C15.4325 15.1717 16.1498 14.3887 16.1498 14.3887C13.7131 11.433 9.64096 8.48474 9.64096 8.48474C8.86921 9.15637 7.98608 9.99487 7.98608 9.99487Z" fill="#ECF1F5"/>
<path d="M14.46 15.9266L7.98604 9.99487L7.58704 10.3335L14.0438 16.2776L14.46 15.9266Z" fill="#FFE12C"/>
<path d="M16.1494 14.3891L16.5349 14.0036L10.0418 8.091L9.6405 8.48513L16.1494 14.3891Z" fill="#FFE12C"/>
<path fill-rule="evenodd" clip-rule="evenodd" d="M23.25 23.0081C20.8181 23.5976 19.7141 22.413 19.7141 22.413C17.7232 23.3576 16.1857 21.4834 16.1857 21.4834C12.0521 20.6085 14.6906 16.3736 12.7878 14.2208C19.8446 11.2466 19.1193 19.752 23.25 23.0081Z" fill="url(#paint0_linear_6687_1865)"/>
<path fill-rule="evenodd" clip-rule="evenodd" d="M17.0388 18.9521C18.9532 22.4419 21.3944 23.3989 23.2499 23.0081C19.9811 24.1174 18.1162 21.1718 17.0388 18.9521Z" fill="#B3C2C6"/>
<path fill-rule="evenodd" clip-rule="evenodd" d="M14.9793 17.7784C15.6719 21.846 17.7141 22.9796 19.6101 22.4603C17.1363 23.6918 14.9766 20.8343 14.9793 17.7784Z" fill="#B3C2C6"/>
<path fill-rule="evenodd" clip-rule="evenodd" d="M13.5918 16.7614C13.606 19.5491 14.2105 20.8425 16.1583 21.4781C13.4785 21.1384 13.4812 19.0627 13.5918 16.7614Z" fill="#B3C2C6"/>
<path fill-rule="evenodd" clip-rule="evenodd" d="M9.78012 11.2125C7.62687 9.30975 3.39088 11.9456 2.51675 7.81388C2.51675 7.81388 0.642876 6.27638 1.58675 4.28625C1.58675 4.28625 0.402126 3.18375 0.991625 0.75C4.24888 4.88212 12.7535 4.15687 9.78012 11.2125Z" fill="url(#paint1_linear_6687_1865)"/>
<path fill-rule="evenodd" clip-rule="evenodd" d="M5.04826 6.96112C1.55888 5.0475 0.601505 2.60663 0.991505 0.75C-0.117745 4.01962 2.82938 5.88337 5.04826 6.96112Z" fill="#B3C2C6"/>
<path fill-rule="evenodd" clip-rule="evenodd" d="M6.22057 9.02059C2.15482 8.32759 1.02082 6.28609 1.53907 4.38934C0.308317 6.86397 3.16544 9.02322 6.22057 9.02059Z" fill="#B3C2C6"/>
<path fill-rule="evenodd" clip-rule="evenodd" d="M7.23946 10.4092C4.45133 10.3942 3.15721 9.78899 2.52271 7.84161C2.86171 10.521 4.93771 10.5191 7.23946 10.4092Z" fill="#B3C2C6"/>
</g>
<defs>
<linearGradient id="paint0_linear_6687_1865" x1="12.788" y1="18.3862" x2="23.25" y2="18.3862" gradientUnits="userSpaceOnUse">
<stop stop-color="#ECF1F5"/>
<stop offset="0.413" stop-color="#E9EEF3"/>
<stop offset="0.7203" stop-color="#E0E6EB"/>
<stop offset="0.9932" stop-color="#D0D8DD"/>
<stop offset="1" stop-color="#CFD8DD"/>
</linearGradient>
<linearGradient id="paint1_linear_6687_1865" x1="0.827" y1="5.98132" x2="10.4005" y2="5.98132" gradientUnits="userSpaceOnUse">
<stop stop-color="#CFD8DD"/>
<stop offset="0.0068" stop-color="#D0D8DD"/>
<stop offset="0.2797" stop-color="#E0E6EB"/>
<stop offset="0.587" stop-color="#E9EEF3"/>
<stop offset="1" stop-color="#ECF1F5"/>
</linearGradient>
<clipPath id="clip0_6687_1865">
<rect width="24" height="24" fill="white"/>
</clipPath>
</defs>
</svg>
