<svg width="97" height="46" viewBox="0 0 97 46" fill="none" xmlns="http://www.w3.org/2000/svg">
<g clip-path="url(#clip0_6584_671)">
<path d="M16.944 21.5667V14.8692L13.0662 21.5667H8.91799L5.10679 14.8692V21.5667H0.368896V8.55688H6.69257L11.0235 16.3372L15.5276 8.55688H21.6819V21.5667H16.944Z" fill="white"/>
<path d="M28.4297 21.5667H23.1355L32.0377 8.55688H37.6873L46.152 21.5667H40.7217L39.3736 19.5172H29.8295L28.4297 21.5667ZM35.3603 13.2367L34.6857 12.1226L33.9605 13.2389L31.8029 16.4206H37.4508C37.468 16.4189 35.3603 13.2367 35.3603 13.2367Z" fill="white"/>
<path d="M61.7687 21.5664L61.6837 20.1506C60.3861 21.0332 58.2779 21.7661 55.159 21.7661C51.9547 21.7661 49.0886 20.9328 47.4695 19.133C46.4894 18.0047 45.9722 16.5548 46.0197 15.0687C45.9992 13.6459 46.53 12.2692 47.5033 11.2205C49.1896 9.40528 52.1913 8.33887 56.2384 8.33887C61.0435 8.33887 64.0957 9.77172 65.3444 12.1201C65.5251 12.4773 65.6502 12.8594 65.7153 13.2535H60.9608C60.9269 13.0889 60.556 12.8366 60.2529 12.6539C59.6787 12.2699 58.3306 11.8546 56.189 11.8546C54.0474 11.8546 52.53 12.2874 51.7038 13.1542C51.2465 13.6871 50.9956 14.363 50.9956 15.0615C50.9956 15.7601 51.2465 16.436 51.7038 16.9689C52.5128 17.8022 54.0302 18.2515 56.189 18.2515C58.1785 18.2515 59.7298 17.9185 60.6071 17.3858C60.9337 17.2247 61.2081 16.9765 61.3994 16.6694H55.3473V13.8717H65.8358V21.5681L61.7687 21.5664Z" fill="white"/>
<path d="M68.6335 21.5667V8.55688H73.7096V21.5667H68.6335Z" fill="white"/>
<path d="M96.3391 17.7657C95.1248 20.3313 92.1242 21.7642 86.4413 21.7642C81.4996 21.7642 78.5013 20.4816 77.066 18.5161C76.3522 17.4938 75.9808 16.2761 76.0038 15.0344C75.9763 13.8512 76.3304 12.6901 77.0149 11.7188C78.5324 9.6694 81.5507 8.30347 86.5096 8.30347C92.816 8.30347 95.3446 10.4862 96.3568 12.5181C96.575 13.0099 96.7117 13.5331 96.7616 14.0678H91.5479C91.4792 13.8533 91.3657 13.6553 91.2147 13.4869C90.6417 12.7704 89.0904 12.054 86.4768 12.054C84.0154 12.054 82.1265 12.6706 81.4185 13.8703C81.2135 14.2365 81.1142 14.6513 81.1315 15.0695C81.1215 15.4785 81.2267 15.8822 81.4352 16.2357C82.2442 17.5194 84.353 18.035 86.4763 18.035C88.8039 18.035 90.6584 17.702 91.4002 16.5852C91.5058 16.4317 91.5695 16.2539 91.5851 16.069H96.7955C96.7144 16.6509 96.5612 17.2208 96.3391 17.7657Z" fill="white"/>
<path d="M5.67737 38.3505H0V24.6111H16.7056V28.8049H5.67737V29.7758H16.2337V33.8862H5.67737V38.3505ZM0.735698 37.6214H4.93834V33.1572H15.4958V30.5043H4.94001V28.0758H15.9677V25.3401H0.735698V37.6214Z" fill="white"/>
<path d="M28.041 38.5342C21.8223 38.5342 18.3981 36.103 18.3981 31.6892V24.6127H24.1271V31.8554C24.1271 33.3711 25.6584 34.2401 28.3275 34.2401C30.9049 34.2401 32.4435 33.3486 32.4435 31.8554V24.6111H38.107V32.2553C38.1053 36.3043 34.5307 38.5342 28.041 38.5342ZM19.136 25.3401V31.6892C19.136 37.0103 24.7151 37.8052 28.0415 37.8052C31.524 37.8052 37.3696 37.0838 37.3696 32.2553V25.3401H33.1831V31.8554C33.1831 33.7754 31.3236 34.9691 28.3292 34.9691C25.237 34.9691 23.3908 33.805 23.3908 31.8554V25.3401H19.136Z" fill="white"/>
<path d="M59.7258 38.3505H54.361L46.2695 31.297V38.3505H40.7598V24.6111H46.3772L54.2661 31.4819V24.6111H59.7258V38.3505ZM54.6403 37.6214H58.9884V25.3401H55.004V33.0985L46.0984 25.3401H41.4977V37.622H45.5321V29.682L54.6403 37.6214Z" fill="white"/>
<path d="M73.8768 38.3505H62.3278V24.6111H73.8768C77.7008 24.6111 80.2277 25.7137 81.386 27.8877C81.9236 28.9293 82.1876 30.0877 82.1539 31.2564C82.182 32.4861 81.9334 33.7066 81.4259 34.8298C80.281 37.1661 77.7413 38.3505 73.8768 38.3505ZM63.0685 37.622H73.8791C77.4371 37.622 79.753 36.5759 80.7641 34.5121C81.2228 33.4879 81.4462 32.3761 81.4182 31.2564C81.451 30.2078 81.2172 29.1678 80.738 28.2316C79.7147 26.3116 77.4065 25.3396 73.8791 25.3396H63.0685V37.622ZM73.0506 35.0185H67.2683V27.9266H73.1184C75.0673 27.9266 76.2433 28.439 76.8185 29.5394C77.0695 30.1276 77.1983 30.7596 77.1972 31.3979C77.242 32.1057 77.1061 32.8133 76.8019 33.4556C76.2022 34.5248 75.0112 35.0185 73.0506 35.0185ZM68.0062 34.2894H73.0506C74.7164 34.2894 75.7003 33.9148 76.1506 33.1111C76.3943 32.5782 76.5002 31.9939 76.4587 31.4106C76.462 30.8761 76.3582 30.3462 76.1533 29.8515C75.7219 29.0287 74.783 28.6518 73.1178 28.6518H68.0062V34.2894Z" fill="white"/>
</g>
<defs>
<clipPath id="clip0_6584_671">
<rect width="97" height="46" fill="white"/>
</clipPath>
</defs>
</svg>
