<svg width="37" height="22" viewBox="0 0 37 22" fill="none" xmlns="http://www.w3.org/2000/svg">
<g id="Logo">
<path id="Vector 2" d="M26.2634 5.52893L28.2578 13.8553C28.4764 14.7679 27.7846 15.645 26.8462 15.645H8.85853C7.14504 15.645 5.61388 14.575 5.02485 12.9659L4.86147 12.5196C4.77479 12.2828 4.95009 12.032 5.20225 12.032H16.9496C17.0887 12.032 17.2014 11.9192 17.2014 11.7801C17.2014 10.7368 16.3556 9.89096 15.3123 9.89096H6.75214C5.03865 9.89096 3.50749 8.82095 2.91846 7.21188L2.77141 6.81019C2.68473 6.57339 2.86002 6.32255 3.11218 6.32255H14.2733C14.4124 6.32255 14.5251 6.20978 14.5251 6.07067C14.5251 5.02732 13.6793 4.18151 12.636 4.18151H4.66208C2.94858 4.18151 1.41743 3.1115 0.828392 1.50243L0.697674 1.14535C0.610991 0.908555 0.786284 0.657715 1.03845 0.657715H20.0875C23.025 0.657715 25.5791 2.67228 26.2634 5.52893Z" fill="url(#paint0_linear_9837_23)"/>
<path id="Vector 3" d="M33.3252 8.00723L36.1223 20.0198C36.3343 20.9301 35.6433 21.8005 34.7086 21.8005H15.9473C14.1704 21.8005 12.5975 20.6511 12.0577 18.9582L11.8676 18.3619C11.7557 18.0108 12.0177 17.6522 12.3862 17.6522H29.5179C30.4578 17.6522 31.1498 16.7726 30.9287 15.8591L28.4263 5.523C28.3434 5.18044 28.6029 4.85059 28.9554 4.85059H29.3491C31.2471 4.85059 32.8948 6.15866 33.3252 8.00723Z" fill="url(#paint1_linear_9837_23)"/>
</g>
<defs>
<linearGradient id="paint0_linear_9837_23" x1="14.4805" y1="0.657715" x2="14.4805" y2="15.645" gradientUnits="userSpaceOnUse">
<stop stop-color="#FFC803"/>
<stop offset="1" stop-color="#FFA903"/>
</linearGradient>
<linearGradient id="paint1_linear_9837_23" x1="23.9669" y1="4.85059" x2="23.9669" y2="21.8005" gradientUnits="userSpaceOnUse">
<stop stop-color="#FF7421"/>
<stop offset="1" stop-color="#EC5901"/>
</linearGradient>
</defs>
</svg>
